<svg id="icon_clinician" xmlns="http://www.w3.org/2000/svg" width="61" height="61" viewBox="0 0 61 61">
  <circle id="Ellipse_17" data-name="Ellipse 17" cx="30.5" cy="30.5" r="30.5" fill="#cbd6e4" opacity="0.84"/>
  <g id="noun_surgeon_531964" transform="translate(-91 -6.5)">
    <g id="Group_45" data-name="Group 45" transform="translate(100.721 17.784)">
      <path id="Path_23" data-name="Path 23" d="M31.095,40.026l.881-1.763L31.095,36.5H27.451l-.881,1.763.881,1.763h.47L26.1,47.253l3.114,3,3.173-3-1.822-7.227ZM28.157,38.85l-.294-.588.294-.588h2.233l.294.588-.294.588H28.157Zm2.938,8.05-1.822,1.7-1.822-1.763,1.7-6.816h.235Z" transform="translate(-8.481 -14.846)" fill="#093368"/>
      <path id="Path_24" data-name="Path 24" d="M35.834,26.3A6.386,6.386,0,0,0,31.368,21.3c-.353-.118-3.056-.823-4.231-1-.705-.47-2.057-1.469-2.233-2.35A18.375,18.375,0,0,0,28.43,8.139a7.639,7.639,0,1,0-15.278,0,18.2,18.2,0,0,0,3.526,9.754c-.118.823-1.351,1.88-2.174,2.409a42.866,42.866,0,0,0-4.231,1,6.45,6.45,0,0,0-4.466,5.053,18.172,18.172,0,0,0,.646,8.52,51.066,51.066,0,0,0,14.337,2.057,49.713,49.713,0,0,0,14.4-2.057A18.957,18.957,0,0,0,35.834,26.3Zm-5.053,1.939a1.175,1.175,0,1,1-1.175,1.175A1.179,1.179,0,0,1,30.781,28.235ZM20.792,1.675A6.665,6.665,0,0,1,26.55,5.2H23.083a2.345,2.345,0,0,0-2.292-1.763A2.4,2.4,0,0,0,18.5,5.2H15.033A6.458,6.458,0,0,1,20.792,1.675Zm1.175,4.113a1.175,1.175,0,1,1-1.175-1.175A1.179,1.179,0,0,1,21.967,5.788Zm-7.4.588H18.5a2.345,2.345,0,0,0,2.292,1.763,2.4,2.4,0,0,0,2.292-1.763H27.02a6.066,6.066,0,0,1,.235,1.763c0,3.7-3,11.164-6.464,11.164s-6.464-7.463-6.464-11.164A9.072,9.072,0,0,1,14.563,6.376ZM34.189,33.934a49.411,49.411,0,0,1-26.795,0,17.57,17.57,0,0,1-.47-7.4,5.064,5.064,0,0,1,3.643-4.054l.353-.118a8.032,8.032,0,0,1,.47,4.231,3.535,3.535,0,0,0-2.938,3.467v2.35H10.8V31.231H9.627V30.056a2.35,2.35,0,1,1,4.7,0v1.175H13.153v1.175H15.5v-2.35a3.535,3.535,0,0,0-2.938-3.467,8.55,8.55,0,0,0-.529-4.525c1.058-.294,2.82-.588,2.82-.588A7.718,7.718,0,0,0,17.5,18.951a4.848,4.848,0,0,0,3.232,1.587,4.766,4.766,0,0,0,3.232-1.528,7.643,7.643,0,0,0,2.7,2.468s1.645.294,2.7.588a7.773,7.773,0,0,1,.881,5.112,2.386,2.386,0,0,0-1.88,2.292,2.35,2.35,0,1,0,3.056-2.233,9.3,9.3,0,0,0-.588-4.76A5.086,5.086,0,0,1,34.6,26.589,16.128,16.128,0,0,1,34.189,33.934Z" fill="#093368"/>
    </g>
  </g>
</svg>
