<svg xmlns="http://www.w3.org/2000/svg" xmlns:xlink="http://www.w3.org/1999/xlink" width="201" height="145" viewBox="0 0 201 145">
  <defs>
    <filter id="Rectangle_82" x="0" y="0" width="201" height="145" filterUnits="userSpaceOnUse">
      <feOffset dy="4" input="SourceAlpha"/>
      <feGaussianBlur stdDeviation="10.5" result="blur"/>
      <feFlood flood-color="#355e93" flood-opacity="0.22"/>
      <feComposite operator="in" in2="blur"/>
      <feComposite in="SourceGraphic"/>
    </filter>
    <filter id="Rectangle_80" x="0" y="0" width="201" height="145" filterUnits="userSpaceOnUse">
      <feOffset dy="4" input="SourceAlpha"/>
      <feGaussianBlur stdDeviation="10.5" result="blur-2"/>
      <feFlood flood-color="#355e93" flood-opacity="0.22"/>
      <feComposite operator="in" in2="blur-2"/>
      <feComposite in="SourceGraphic"/>
    </filter>
    <clipPath id="clip-path">
      <g transform="matrix(1, 0, 0, 1, 0, 0)" filter="url(#Rectangle_82)">
        <rect id="Rectangle_82-2" data-name="Rectangle 82" width="138" height="82" rx="20" transform="translate(43 702)" fill="#355e93"/>
      </g>
    </clipPath>
  </defs>
  <g id="btn_profile" transform="translate(31.5 27.5)">
    <g transform="matrix(1, 0, 0, 1, -31.5, -27.5)" filter="url(#Rectangle_80)">
      <rect id="Rectangle_80-2" data-name="Rectangle 80" width="138" height="82" rx="20" transform="translate(31.5 27.5)" fill="#355e93"/>
    </g>
    <g id="Group_5733" data-name="Group 5733" transform="translate(-43 -702)">
      <g id="Mask_Group_4" data-name="Mask Group 4" clip-path="url(#clip-path)">
        <g id="noun_User_1783254" transform="translate(36 655.109)">
          <g id="Group_54" data-name="Group 54" transform="translate(10.286 64.569)">
            <g id="Group_51" data-name="Group 51" transform="translate(12.823)">
              <g id="Group_50" data-name="Group 50">
                <path id="Path_29" data-name="Path 29" d="M316.3,83.055a17.073,17.073,0,0,1-.138,2.139c.033-.22.057-.431.089-.651a16.357,16.357,0,0,1-1.122,4.106l.244-.585a16.329,16.329,0,0,1-1.48,2.724c-.138.2-.285.407-.431.61-.106.146-.39.455.122-.155-.089.106-.179.22-.268.333q-.476.573-1,1.1t-1.1,1c-.065.057-.244.26-.333.268.106-.008.537-.407.154-.122-.2.146-.4.293-.61.431a16.653,16.653,0,0,1-2.724,1.48l.585-.244a16.358,16.358,0,0,1-4.106,1.122c.22-.033.431-.057.651-.089a16.435,16.435,0,0,1-4.285,0c.22.033.431.057.651.089a16.359,16.359,0,0,1-4.106-1.122l.586.244a16.327,16.327,0,0,1-2.724-1.48c-.2-.138-.407-.285-.61-.431-.146-.106-.455-.39.154.122-.106-.089-.22-.179-.333-.268q-.573-.476-1.1-1t-1-1.1c-.057-.065-.26-.244-.268-.333.008.106.407.537.122.155-.146-.2-.293-.4-.431-.61a16.656,16.656,0,0,1-1.48-2.724l.244.585a16.358,16.358,0,0,1-1.122-4.106c.033.22.057.431.089.651a16.437,16.437,0,0,1,0-4.285c-.033.22-.057.431-.089.651a16.358,16.358,0,0,1,1.122-4.106l-.244.585a16.328,16.328,0,0,1,1.48-2.724c.138-.2.285-.407.431-.61.106-.146.39-.455-.122.155.089-.106.179-.22.268-.333q.476-.573,1-1.1t1.1-1c.065-.057.244-.26.333-.268-.106.008-.537.407-.154.122.2-.146.4-.293.61-.431a16.657,16.657,0,0,1,2.724-1.48l-.586.244a16.358,16.358,0,0,1,4.106-1.122c-.22.033-.431.057-.651.089a16.435,16.435,0,0,1,4.285,0c-.22-.033-.431-.057-.651-.089a16.357,16.357,0,0,1,4.106,1.122l-.585-.244a16.331,16.331,0,0,1,2.724,1.48c.2.138.407.285.61.431.146.106.455.39-.154-.122.106.089.22.179.333.268q.573.476,1.1,1t1,1.1c.057.065.26.244.268.333-.008-.106-.407-.537-.122-.155.146.2.293.4.431.61a16.658,16.658,0,0,1,1.48,2.724l-.244-.585a16.357,16.357,0,0,1,1.122,4.106c-.033-.22-.057-.431-.089-.651a17.3,17.3,0,0,1,.138,2.147,2.439,2.439,0,1,0,4.879,0A18.4,18.4,0,0,0,317.857,72.5a19,19,0,0,0-8.977-6.863,18.55,18.55,0,0,0-20.337,5.529,18.977,18.977,0,0,0-4.3,10.644,18.449,18.449,0,0,0,10.669,18.02,19.834,19.834,0,0,0,5.855,1.61,18.333,18.333,0,0,0,5.692-.276A18.55,18.55,0,0,0,320.9,86.185a20.074,20.074,0,0,0,.276-3.123,2.439,2.439,0,0,0-4.879-.008Z" transform="translate(-284.191 -64.569)" fill="#486fa2"/>
              </g>
            </g>
            <g id="Group_53" data-name="Group 53" transform="translate(0 31.777)">
              <g id="Group_52" data-name="Group 52">
                <path id="Path_30" data-name="Path 30" d="M176.257,459.928c.431.276.854.561,1.269.87.146.106.464.4-.122-.1.089.073.187.146.276.22.187.146.366.3.545.455a21.04,21.04,0,0,1,2.074,2.1c.155.179.3.366.447.545.276.35-.342-.455-.089-.122l.211.285c.3.415.585.846.854,1.277a19.854,19.854,0,0,1,1.358,2.651l-.244-.586a19.982,19.982,0,0,1,1.366,5.033c-.033-.22-.057-.431-.089-.651a49.909,49.909,0,0,1,.171,6.335v7.928a21,21,0,0,1-.049,2.374c.033-.22.057-.431.089-.651a6.638,6.638,0,0,1-.415,1.578l.244-.585a7.462,7.462,0,0,1-.545,1.041,1.618,1.618,0,0,1-.179.26c.008,0,.447-.537.155-.2-.13.146-.252.293-.39.431-.122.122-.252.244-.39.358-.171.138-.439.252.163-.122-.089.057-.171.122-.26.179a5.513,5.513,0,0,1-1.041.545l.585-.244a6.64,6.64,0,0,1-1.578.415c.22-.033.431-.057.651-.089a15.641,15.641,0,0,1-1.854.049H140.511c-1.781,0-3.57.008-5.351,0a6.954,6.954,0,0,1-.821-.049c.22.033.431.057.651.089a6.644,6.644,0,0,1-1.578-.415l.585.244a7.466,7.466,0,0,1-1.041-.545,1.619,1.619,0,0,1-.26-.179c0,.008.537.447.2.155-.146-.13-.293-.252-.431-.39-.122-.122-.244-.252-.358-.39-.138-.171-.252-.439.122.163-.057-.089-.122-.171-.179-.26a5.511,5.511,0,0,1-.545-1.041l.244.586a6.639,6.639,0,0,1-.415-1.578c.033.22.057.431.089.651a16.57,16.57,0,0,1-.049-2.008V475.427a28.625,28.625,0,0,1,.171-3.537c-.033.22-.057.431-.089.651a20.057,20.057,0,0,1,1.374-5.042l-.244.585a20.643,20.643,0,0,1,1.334-2.6c.26-.423.529-.838.821-1.236.122-.171.659-.813.114-.171.155-.179.293-.374.447-.553a19.523,19.523,0,0,1,1.984-2.033l.537-.464c.089-.073.187-.146.276-.228.065-.049.122-.1.187-.146l-.309.236a9.016,9.016,0,0,1,1.26-.886,2.438,2.438,0,1,0-2.456-4.212,22.4,22.4,0,0,0-7.855,8.628,22.685,22.685,0,0,0-2.431,10.23v13.092a8.874,8.874,0,0,0,2.041,5.57,8.735,8.735,0,0,0,6.847,3.09h44.089a13.337,13.337,0,0,0,3.163-.252,8.741,8.741,0,0,0,6.562-8.432c.024-3.83,0-7.66,0-11.49a30.582,30.582,0,0,0-.537-6.554,22.172,22.172,0,0,0-5.513-10.376,22.635,22.635,0,0,0-4.4-3.61,2.462,2.462,0,0,0-2.5,4.245Z" transform="translate(-126.5 -455.355)" fill="#486fa2"/>
              </g>
            </g>
          </g>
          <text id="Created_by_shashank_singh" data-name="Created by shashank singh" transform="translate(0 144.399)" fill="#486fa2" font-size="1" font-family="Arial-BoldMT, Arial" font-weight="700"><tspan x="0" y="0">Created by shashank singh</tspan></text>
          <text id="from_the_Noun_Project" data-name="from the Noun Project" transform="translate(0 144.806)" fill="#486fa2" font-size="1" font-family="Arial-BoldMT, Arial" font-weight="700"><tspan x="0" y="0">from the Noun Project</tspan></text>
        </g>
      </g>
    </g>
  </g>
</svg>
