<svg xmlns="http://www.w3.org/2000/svg" xmlns:xlink="http://www.w3.org/1999/xlink" width="201" height="145" viewBox="0 0 201 145">
  <defs>
    <filter id="Rectangle_83" x="0" y="0" width="201" height="145" filterUnits="userSpaceOnUse">
      <feOffset dy="4" input="SourceAlpha"/>
      <feGaussianBlur stdDeviation="10.5" result="blur"/>
      <feFlood flood-color="#355e93" flood-opacity="0.2"/>
      <feComposite operator="in" in2="blur"/>
      <feComposite in="SourceGraphic"/>
    </filter>
    <filter id="Rectangle_81" x="0" y="0" width="201" height="145" filterUnits="userSpaceOnUse">
      <feOffset dy="4" input="SourceAlpha"/>
      <feGaussianBlur stdDeviation="10.5" result="blur-2"/>
      <feFlood flood-color="#355e93" flood-opacity="0.2"/>
      <feComposite operator="in" in2="blur-2"/>
      <feComposite in="SourceGraphic"/>
    </filter>
    <clipPath id="clip-path">
      <g transform="matrix(1, 0, 0, 1, 0, 0)" filter="url(#Rectangle_83)">
        <rect id="Rectangle_83-2" data-name="Rectangle 83" width="138" height="82" rx="20" transform="translate(195 700)" fill="#6898d5"/>
      </g>
    </clipPath>
  </defs>
  <g id="btn_settings" transform="translate(31.5 27.5)">
    <g transform="matrix(1, 0, 0, 1, -31.5, -27.5)" filter="url(#Rectangle_81)">
      <rect id="Rectangle_81-2" data-name="Rectangle 81" width="138" height="82" rx="20" transform="translate(31.5 27.5)" fill="#6898d5"/>
    </g>
    <g id="Group_5735" data-name="Group 5735" transform="translate(-195 -700)">
      <g id="Mask_Group_5" data-name="Mask Group 5" clip-path="url(#clip-path)">
        <g id="Group_55" data-name="Group 55" transform="translate(176 719)">
          <g id="Group_57" data-name="Group 57" transform="translate(0)">
            <g id="Group_56" data-name="Group 56">
              <g id="Group_55-2" data-name="Group 55" transform="translate(0)">
                <path id="Path_35" data-name="Path 35" d="M37.9,46.228a7.124,7.124,0,1,1,7.12-7.12,7.132,7.132,0,0,1-7.12,7.12m37.687,1.407a6.186,6.186,0,0,1-.536,4.514L68.8,63.4a5.863,5.863,0,0,1-1.187,1.518,6,6,0,0,1-5.26,1.474l-4.938-1.3a.843.843,0,0,0-.494.067l-1.094.654-4.878,3.063-.265.421-.916,3.917a5.825,5.825,0,0,1-1.8,3.35,6.185,6.185,0,0,1-4.182,1.649l-12.923-.227a5.932,5.932,0,0,1-1.892-.332,6.038,6.038,0,0,1-2.887-2.15,5.845,5.845,0,0,1-.893-1.809l-1.168-4.97a.823.823,0,0,0-.281-.392l-3.3-2.236-1.509-.785-.022.01-.51-.016-3.844,1.18a7.13,7.13,0,0,1-3.809.134,6.156,6.156,0,0,1-3.554-2.846L.938,52.544a5.885,5.885,0,0,1-.667-1.812,6.121,6.121,0,0,1,.4-3.544,6.192,6.192,0,0,1,1.12-1.7l3.716-3.509a.94.94,0,0,0,.2-.456l.032-.539-.29-5.276-.242-.44-2.973-2.7A5.859,5.859,0,0,1,.182,29.355a6.108,6.108,0,0,1,.641-4.52L7.28,13.727a5.981,5.981,0,0,1,1.228-1.5,6.009,6.009,0,0,1,5.312-1.353l4.881,1.4a.96.96,0,0,0,.488-.054l3.554-1.786,1.42-.96.265-.431L25.266,5.1a5.883,5.883,0,0,1,1.742-3.385A6.11,6.11,0,0,1,31.241,0H44.107a5.96,5.96,0,0,1,4.8,2.386A6.069,6.069,0,0,1,49.836,4.2L51.086,9.14a.962.962,0,0,0,.293.4l2.16,1.4,3.267,1.439,3.828-1.372a6.8,6.8,0,0,1,3.812-.233,6.131,6.131,0,0,1,3.618,2.721l6.594,11.063a6.028,6.028,0,0,1,.715,1.793,6.1,6.1,0,0,1-.306,3.576,5.97,5.97,0,0,1-1.091,1.735l-3.592,3.589a.9.9,0,0,0-.182.45l-.163,3.969.156,1.716.246.44,3.024,2.638A5.882,5.882,0,0,1,75.587,47.635Zm-5.289,1.9a.745.745,0,0,0,.057-.475.659.659,0,0,0-.249-.348l-3.222-2.8a5.986,5.986,0,0,1-2.125-4.16q.014-3.23.032-6.454a6.4,6.4,0,0,1,1.04-3.008,5.951,5.951,0,0,1,.676-.839l3.541-3.531a1.163,1.163,0,0,0,.029-.405L63.423,16.3a.738.738,0,0,0-.38-.287l-.121.057-.549.073-3.806,1.292a5.993,5.993,0,0,1-2.026.351l-.405-.022H56.12a5.451,5.451,0,0,1-2.2-.584q-2.823-1.6-5.646-3.2a6.418,6.418,0,0,1-2.054-2.431,6.057,6.057,0,0,1-.383-1.046L44.62,5.678a.986.986,0,0,0-.329-.23l-.207-.029H31.241a.726.726,0,0,0-.447.182.678.678,0,0,0-.185.4l-.88,4.157a6.018,6.018,0,0,1-2.6,3.876q-2.833,1.55-5.662,3.1a6.378,6.378,0,0,1-2.606.571l-.546-.019a6.384,6.384,0,0,1-1.091-.2l-4.76-1.369a1.339,1.339,0,0,0-.367.172L5.509,27.559a.707.707,0,0,0-.067.472.69.69,0,0,0,.249.364l3.161,2.862a5.851,5.851,0,0,1,1.356,1.723,6.048,6.048,0,0,1,.683,2.479q.1,3.307.207,6.616A6.41,6.41,0,0,1,9.982,45.06a5.969,5.969,0,0,1-.743.852l-3.608,3.4a1.276,1.276,0,0,0-.032.405l6.336,11.4a.736.736,0,0,0,.373.3l.4-.019,4.1-1.282a6.129,6.129,0,0,1,1.869-.29,6.348,6.348,0,0,1,2.791.683q2.732,1.713,5.458,3.426a6.356,6.356,0,0,1,2.013,2.469,5.916,5.916,0,0,1,.364,1.062L30.437,72.3a1.17,1.17,0,0,0,.319.233l13.083.258a.729.729,0,0,0,.418-.172.655.655,0,0,0,.188-.38l.957-4.166a5.933,5.933,0,0,1,.849-2.026,6,6,0,0,1,1.841-1.809q3.23-1.981,6.463-3.959a6.459,6.459,0,0,1,2.724-.625l.443.016a6.09,6.09,0,0,1,1.078.175l4.779,1.273a1.215,1.215,0,0,0,.364-.182ZM37.9,26.561A12.544,12.544,0,1,1,25.353,39.107,12.559,12.559,0,0,1,37.9,26.561Z" transform="translate(0)" fill="#5689c9" fill-rule="evenodd"/>
              </g>
            </g>
          </g>
        </g>
      </g>
    </g>
  </g>
</svg>
