<svg id="Call_Icon" data-name="Call Icon" xmlns="http://www.w3.org/2000/svg" width="16" height="15.5" viewBox="0 0 16 15.5">
  <path id="Call_Icon-2" data-name="Call Icon" d="M4.655,11.048s6.537,5.966,10.221,4.086a3.335,3.335,0,0,0,1.117-1.653c.1-.819-.747-1.369-1.074-1.556-.783-.449-1.588-.868-2.386-1.294a1.166,1.166,0,0,0-.824-.213,2.827,2.827,0,0,0-.508.167c-.562.264-1.023.513-1.632.761,0,0-.622-.182-2.941-2.293C4.163,6.808,4.5,5.974,4.5,5.974a9.064,9.064,0,0,0,.855-1.288,3.207,3.207,0,0,0,.309-.594c.062-.213-.065-.365-.171-.552C5.252,3.123,5,2.713,4.738,2.308A14.86,14.86,0,0,0,3.249.253c-.061-.065-.2-.26-.318-.253A5.02,5.02,0,0,0,.389,1.23C-1.594,4.49,4.655,11.048,4.655,11.048Z" fill="#355e93"/>
</svg>
