<svg id="icon_screening" xmlns="http://www.w3.org/2000/svg" width="61" height="61" viewBox="0 0 61 61">
  <circle id="Ellipse_17" data-name="Ellipse 17" cx="30.5" cy="30.5" r="30.5" fill="#cbd6e4" opacity="0.84"/>
  <g id="noun_Personal_Assessment_1876460" data-name="noun_Personal Assessment_1876460" transform="translate(7.055 7.219)">
    <g id="Group_41" data-name="Group 41" transform="translate(6.9 0.9)">
      <g id="Group_31" data-name="Group 31" transform="translate(5.099)">
        <path id="Path_21" data-name="Path 21" d="M18.949,9.4A4.249,4.249,0,1,0,14.7,5.149,4.241,4.241,0,0,0,18.949,9.4Zm0-7.125a2.942,2.942,0,1,1-2.942,2.942A2.929,2.929,0,0,1,18.949,2.273Z" transform="translate(-14.7 -0.9)" fill="#093368"/>
      </g>
      <g id="Group_32" data-name="Group 32" transform="translate(0 9.544)">
        <path id="Path_22" data-name="Path 22" d="M40.828,23.083c-5.164-5.164-5.1-5.23-5.491-5.23H25.6A2.4,2.4,0,0,0,23.177,15.5H18.732a.593.593,0,0,0-.458.2l-2.027,2.027L14.222,15.7a.593.593,0,0,0-.458-.2H9.319A2.456,2.456,0,0,0,6.9,17.919V29.882A2.456,2.456,0,0,0,9.319,32.3a3.08,3.08,0,0,0,1.111-.261V45.375a2.551,2.551,0,0,0,2.157,2.549,2.44,2.44,0,0,0,2.68-2.419V35.373a.981.981,0,0,1,1.961,0V45.44a2.456,2.456,0,0,0,2.419,2.419h.261a2.5,2.5,0,0,0,2.157-2.092H40.435a.618.618,0,0,0,.654-.654V23.671A.829.829,0,0,0,40.828,23.083ZM38.8,22.952H35.925V20.076ZM20.759,45.309a1.219,1.219,0,0,1-.981,1.242,1.135,1.135,0,0,1-1.242-1.111V35.373a2.288,2.288,0,0,0-4.576,0V45.44a1.1,1.1,0,0,1-1.242,1.111,1.164,1.164,0,0,1-.981-1.242V29.882h0V19.553a.654.654,0,0,0-1.307,0V29.882a1.111,1.111,0,0,1-2.223,0V17.919a1.146,1.146,0,0,1,1.111-1.111H13.5L15.79,19.1a.632.632,0,0,0,.915,0l2.288-2.288h4.184a1.146,1.146,0,0,1,1.111,1.111V29.882a1.111,1.111,0,0,1-2.223,0V19.553a.654.654,0,0,0-1.307,0V29.882h0Zm19.023-.915H22.066V31.974a2.149,2.149,0,0,0,1.111.261A2.456,2.456,0,0,0,25.6,29.816V19.161h9.087v4.445a.618.618,0,0,0,.654.654h4.445Z" transform="translate(-6.9 -15.5)" fill="#093368"/>
      </g>
      <g id="Group_33" data-name="Group 33" transform="translate(8.694 15.689)">
        <rect id="Rectangle_71" data-name="Rectangle 71" width="1.307" height="1.307" fill="#093368"/>
      </g>
      <g id="Group_34" data-name="Group 34" transform="translate(8.694 19.611)">
        <rect id="Rectangle_72" data-name="Rectangle 72" width="1.307" height="1.307" fill="#093368"/>
      </g>
      <g id="Group_35" data-name="Group 35" transform="translate(20.919 21.834)">
        <rect id="Rectangle_73" data-name="Rectangle 73" width="1.307" height="1.307" fill="#093368"/>
      </g>
      <g id="Group_36" data-name="Group 36" transform="translate(23.86 21.834)">
        <rect id="Rectangle_74" data-name="Rectangle 74" width="7.125" height="1.307" fill="#093368"/>
      </g>
      <g id="Group_37" data-name="Group 37" transform="translate(20.919 27.717)">
        <rect id="Rectangle_75" data-name="Rectangle 75" width="1.307" height="1.307" fill="#093368"/>
      </g>
      <g id="Group_38" data-name="Group 38" transform="translate(23.86 27.717)">
        <rect id="Rectangle_76" data-name="Rectangle 76" width="7.125" height="1.307" fill="#093368"/>
      </g>
      <g id="Group_39" data-name="Group 39" transform="translate(20.919 33.601)">
        <rect id="Rectangle_77" data-name="Rectangle 77" width="1.307" height="1.307" fill="#093368"/>
      </g>
      <g id="Group_40" data-name="Group 40" transform="translate(23.86 33.601)">
        <rect id="Rectangle_78" data-name="Rectangle 78" width="7.125" height="1.307" fill="#093368"/>
      </g>
    </g>
  </g>
</svg>
