<svg id="icon_chat" data-name="icon chat" xmlns="http://www.w3.org/2000/svg" width="22.867" height="21.038" viewBox="0 0 22.867 21.038">
  <path id="Path_36" data-name="Path 36" d="M19.724-1.332H3.144A3.147,3.147,0,0,0,0,1.812V11.958A3.147,3.147,0,0,0,3.133,15.1v4.6L9.75,15.1h9.974a3.147,3.147,0,0,0,3.144-3.144V1.812a3.147,3.147,0,0,0-3.144-3.144Zm1.8,13.29a1.806,1.806,0,0,1-1.8,1.8H9.33l-4.857,3.38v-3.38H3.144a1.806,1.806,0,0,1-1.8-1.8V1.812a1.806,1.806,0,0,1,1.8-1.8H19.724a1.806,1.806,0,0,1,1.8,1.8Zm0,0" transform="translate(-0.001 1.332)" fill="#355e93"/>
  <path id="Path_37" data-name="Path 37" d="M171.293,131.172h10.626v1.34H171.293Zm0,0" transform="translate(-165.173 -126.438)" fill="#355e93"/>
  <path id="Path_38" data-name="Path 38" d="M171.293,211.172h10.626v1.34H171.293Zm0,0" transform="translate(-165.173 -203.579)" fill="#355e93"/>
  <path id="Path_39" data-name="Path 39" d="M171.293,291.172h10.626v1.34H171.293Zm0,0" transform="translate(-165.173 -280.721)" fill="#355e93"/>
</svg>
