<svg id="icon_reminder" xmlns="http://www.w3.org/2000/svg" width="61" height="61" viewBox="0 0 61 61">
  <g id="icon" transform="translate(-63 -182)">
    <circle id="Ellipse_17" data-name="Ellipse 17" cx="30.5" cy="30.5" r="30.5" transform="translate(63 182)" fill="#cbd6e4" opacity="0.84"/>
  </g>
  <g id="noun_notification_2139042" transform="translate(1.329 7.111)">
    <path id="Path_26" data-name="Path 26" d="M64.574,10.125a1.3,1.3,0,0,0-1.181,2.318,11.034,11.034,0,0,1,5.992,9.8,1.312,1.312,0,1,0,2.624,0A13.482,13.482,0,0,0,64.574,10.125Z" transform="translate(-28.031 -0.629)" fill="#093368"/>
    <path id="Path_27" data-name="Path 27" d="M21.435,10.136A13.482,13.482,0,0,0,14,22.25a1.312,1.312,0,1,0,2.624,0A10.918,10.918,0,0,1,22.616,12.5a1.27,1.27,0,0,0,.569-1.749A1.31,1.31,0,0,0,21.435,10.136Z" transform="translate(-0.636 -0.64)" fill="#093368"/>
    <path id="Path_28" data-name="Path 28" d="M45.908,39.509v-7.12a10.2,10.2,0,0,0-9.357-10.315,10.009,10.009,0,0,0-7.531,2.693,10.117,10.117,0,0,0-3.195,7.348v7.44a2.75,2.75,0,0,0,.913,5.34h5.614a3.624,3.624,0,0,0,7.029,0H45a2.747,2.747,0,0,0,2.739-2.739A2.839,2.839,0,0,0,45.908,39.509ZM35.867,45.762a1.714,1.714,0,0,1-1.552-.913h3.149A1.841,1.841,0,0,1,35.867,45.762ZM45,43.024H26.739a.913.913,0,1,1,0-1.826.916.916,0,0,0,.913-.913V32.069a8.25,8.25,0,0,1,8.216-8.216h.548a8.408,8.408,0,0,1,7.668,8.535v7.9A.916.916,0,0,0,45,41.2a.913.913,0,1,1,0,1.826Z" transform="translate(-7.196 -8.584)" fill="#093368"/>
  </g>
</svg>
