<svg id="submitted_confirmation" data-name="submitted confirmation" xmlns="http://www.w3.org/2000/svg" width="44" height="44" viewBox="0 0 44 44">
  <path id="correct" d="M31.725,15.02a1.719,1.719,0,0,1,0,2.431L20.195,28.981a1.719,1.719,0,0,1-2.431,0l-5.489-5.489a1.719,1.719,0,0,1,2.43-2.43l4.274,4.274L29.294,15.02a1.719,1.719,0,0,1,2.431,0ZM44,22A22,22,0,1,1,22,0,21.988,21.988,0,0,1,44,22Zm-3.437,0A18.563,18.563,0,1,0,22,40.563,18.552,18.552,0,0,0,40.563,22Zm0,0" transform="translate(0 0)" fill="#6fa730"/>
</svg>
